<svg version="1.1" xmlns="http://www.w3.org/2000/svg" xmlns:xlink="http://www.w3.org/1999/xlink" width="30.61993" height="29.19418" viewBox="0,0,30.61993,29.19418"><defs><linearGradient x1="339.74276" y1="170.8651" x2="339.74276" y2="160.11259" gradientUnits="userSpaceOnUse" id="color-1"><stop offset="0" stop-color="#cccccc"/><stop offset="1" stop-color="#737373"/></linearGradient><linearGradient x1="363.45969" y1="188.92994" x2="363.45969" y2="170.67994" gradientUnits="userSpaceOnUse" id="color-2"><stop offset="0" stop-color="#737373"/><stop offset="1" stop-color="#cccccc"/></linearGradient></defs><g transform="translate(-335.84358,-159.8571)"><g stroke-miterlimit="10"><path d="M340.8346,170.86509l-2.55577,-10.75251h2.92787v10.75114z" fill="none" stroke="url(#color-1)" stroke-width="0.5" stroke-linecap="butt"/><path d="M363.45969,188.92994c-1.48427,0 -2.6875,-4.0854 -2.6875,-9.125c0,-5.0396 1.20324,-9.125 2.6875,-9.125c1.48426,0 2.6875,4.0854 2.6875,9.125c0,5.0396 -1.20324,9.125 -2.6875,9.125z" fill="url(#color-2)" stroke="none" stroke-width="0" stroke-linecap="butt"/><path d="M362.95969,188.92994c-1.48427,0 -2.6875,-4.0854 -2.6875,-9.125c0,-5.0396 1.20324,-9.125 2.6875,-9.125c1.48426,0 2.6875,4.0854 2.6875,9.125c0,5.0396 -1.20324,9.125 -2.6875,9.125z" fill="#000000" stroke="none" stroke-width="0" stroke-linecap="butt"/><path d="M363.02136,170.65091v18.29022h-24.48047v-18.29022z" fill="#000000" stroke="none" stroke-width="0" stroke-linecap="butt"/><path d="M338.53108,188.85851c-1.48427,0 -2.6875,-4.0854 -2.6875,-9.125c0,-5.0396 1.20324,-9.125 2.6875,-9.125c1.48426,0 2.6875,4.0854 2.6875,9.125c0,5.0396 -1.20324,9.125 -2.6875,9.125z" fill="#000000" stroke="none" stroke-width="0" stroke-linecap="butt"/><path d="M338.41291,159.8571l3.05172,11.00799h-3.49603v-11.00658z" fill="#000000" stroke="none" stroke-width="0" stroke-linecap="butt"/><path d="M343.45439,171.1227l0.15625,-2.5l0.36458,-0.05208l-0.05208,1.97917" fill="none" stroke="#000000" stroke-width="0.5" stroke-linecap="round"/><text transform="translate(337.70541,185.44082) scale(0.09934,-0.08451)" font-size="40" xml:space="preserve" fill="#ffffff" stroke="none" stroke-width="1" stroke-linecap="butt" font-family="Sans Serif" font-weight="normal" text-anchor="start"><tspan x="0" dy="0">marshmallow</tspan></text><text transform="translate(337.54474,180.23736) scale(0.13181,-0.12814)" font-size="40" xml:space="preserve" fill="#ffffff" stroke="none" stroke-width="1" stroke-linecap="butt" font-family="Sans Serif" font-weight="normal" text-anchor="start"><tspan x="0" dy="0">launcher</tspan></text><text transform="translate(360.23125,174.24414) scale(0.25561,-0.30796)" font-size="40" xml:space="preserve" fill="#d8d8d8" stroke="none" stroke-width="1" stroke-linecap="butt" font-family="Sans Serif" font-weight="normal" text-anchor="start"><tspan x="0" dy="0">1</tspan></text><text transform="translate(337.83041,173.52824) scale(0.24046,-0.19393)" font-size="40" xml:space="preserve" fill="#ffffff" stroke="none" stroke-width="1" stroke-linecap="butt" font-family="Sans Serif" font-weight="normal" text-anchor="start"><tspan x="0" dy="0">yeah</tspan></text><path d="M346.62547,166.00565v1.53707h-6.84762v-1.53707z" fill="#000000" stroke="none" stroke-width="0" stroke-linecap="butt"/><path d="M346.62546,166.7993v3.93421h-1.48423v-3.93421z" fill="#000000" stroke="none" stroke-width="0" stroke-linecap="butt"/></g></g></svg>